{"title":"Mr Nobody R5 AC3 XViD - IMAGiNE","uid":5614743,"size":1481273604,"categoryP":"video","categoryS":"movies","magnet":"?xt=urn:btih:b5966c4f579850abfa48cd4f8cbe18ffb567db85&amp;dn=Mr+Nobody+R5+AC3+XViD+-+IMAGiNE&amp;tr=udp%3A%2F%2Ftracker.openbittorrent.com%3A80&amp;tr=udp%3A%2F%2Fopen.demonii.com%3A1337&amp;tr=udp%3A%2F%2Ftracker.coppersurfer.tk%3A6969&amp;tr=udp%3A%2F%2Fexodus.desync.com%3A6969","seeders":2,"leechers":0,"uploader":"extremezone","files":-1,"time":1276025483,"description":"Mr Nobody R5 AC3 XViD - IMAGiNE\n\n\nRipper ...........: IMAGiNE                                        IMDB Rating.......:7.5/10                             \nVideo Codec.......: XViD                                        Release Date......:08/06/10\nAudio Codec.......:AC3                                           Theatre Date......:25/02/10\nAudio Bitrate.....:448                                               Runtime.......:2h 13mn\nSubtitles.........:NIL                                                 Language..........:ENGLISH\nResolution......720 x 304 IMDb URL..........:http://www.imdb.com/title/tt0485947/\n\nDETAILS:\n\nVideo\nFormat                           : MPEG-4 Visual\nFormat profile                   : Streaming Video@L1\nFormat settings, BVOP            : Yes\nFormat settings, QPel            : No\nFormat settings, GMC             : No warppoints\nFormat settings, Matrix          : Default\nMuxing mode                      : Packed bitstream\nCodec ID                         : XVID\nCodec ID/Hint                    : XviD\nDuration                         : 2h 13mn\nBit rate                         : 1 012 Kbps\nWidth                            : 720 pixels\nHeight                           : 304 pixels\nDisplay aspect ratio             : 2.35\nFrame rate                       : 25.000 fps\nResolution                       : 24 bits\nColorimetry                      : 4:2:0\nScan type                        : Progressive\nBits/(Pixel*Frame)               : 0.185\nStream size                      : 965 MiB (69%)\nWriting library                  : XviD 50\n\nAudio\nFormat                           : AC-3\nFormat/Info                      : Audio Coding 3\nCodec ID                         : 2000\nDuration                         : 2h 13mn\nBit rate mode                    : Constant\nBit rate                         : 448 Kbps\nChannel(s)                       : 6 channels\nChannel positions                : Front: L C R, Surround: L R, LFE\nSampling rate                    : 48.0 KHz\nStream size                      : 427 MiB (30%)\nAlignment                        : Aligned on interleaves\nInterleave, duration             : 40 ms (1.00 video frame)\nInterleave, preload duration     : 512 ms &lt;a href=&quot;\nhttp://www.imdb.com/title/tt0485947/&quot; rel=&quot;nofollow&quot; target=&quot;_NEW&quot;&gt;\nhttp://www.imdb.com/title/tt0485947/&lt;/a&gt;\n\nScreens: &lt;a href=&quot;\nhttp://www.postimg.com/image/16000/15927.jpg&quot; rel=&quot;nofollow&quot; target=&quot;_NEW&quot;&gt;\nhttp://www.postimg.com/image/16000/15927.jpg&lt;/a&gt; &lt;a href=&quot;\nhttp://www.postimg.com/image/16000/15928.jpg&quot; rel=&quot;nofollow&quot; target=&quot;_NEW&quot;&gt;\nhttp://www.postimg.com/image/16000/15928.jpg&lt;/a&gt; &lt;a href=&quot;\nhttp://www.postimg.com/image/16000/15929.jpg&quot; rel=&quot;nofollow&quot; target=&quot;_NEW&quot;&gt;\nhttp://www.postimg.com/image/16000/15929.jpg&lt;/a&gt;\n\nMr Nobody R5 AC3 XViD - IMAGiNE Torrent Free Download &lt;a href=&quot;\nhttp://thepiratebay.se/user/extremezone/0/7&quot; rel=&quot;nofollow&quot; target=&quot;_NEW&quot;&gt;\nhttp://thepiratebay.se/user/extremezone/0/7&lt;/a&gt;\n\nHow To Get Your Maxspeed (uTorrent)\n\nTorrent Client - Preferences - Bandwidth - Number of connections - Set aprox. 500 for each \nTorrent Client - Preferences - BiTorrent - Protocol Encryption - Forced\nBandwidth Allocation - High (Set download/upload limit - Unlimited)\nStop Other Active Torrents - Start downloading and wait for connections\nEnjoy and Seed for at least 1:1 ratio. Don't forget to say thanks/leave reviews.\nAlso please spread the link where you found this torrent to your friends.\nRecommended player for all our movies VLC PLAYER.","torrent":{"xt":"urn:btih:b5966c4f579850abfa48cd4f8cbe18ffb567db85","amp;dn":"Mr+Nobody+R5+AC3+XViD+-+IMAGiNE","amp;tr":["udp%3A%2F%2Ftracker.openbittorrent.com%3A80","udp%3A%2F%2Fopen.demonii.com%3A1337","udp%3A%2F%2Ftracker.coppersurfer.tk%3A6969","udp%3A%2F%2Fexodus.desync.com%3A6969"],"infoHash":"b5966c4f579850abfa48cd4f8cbe18ffb567db85","infoHashBuffer":{"type":"Buffer","data":[181,150,108,79,87,152,80,171,250,72,205,79,140,190,24,255,181,103,219,133]},"announce":[],"urlList":[]}}